<mxfile host="app.diagrams.net" modified="2024-03-06T15:28:19.386Z" agent="Mozilla/5.0 (Windows NT 10.0; Win64; x64) AppleWebKit/537.36 (KHTML, like Gecko) Chrome/121.0.0.0 Safari/537.36" etag="fGauWTBkrrs5mtmJg-4a" version="24.0.2" type="github">
  <diagram name="Page-1" id="iY4odXbDhtrwmh1eWkCs">
    <mxGraphModel dx="2954" dy="1150" grid="1" gridSize="10" guides="1" tooltips="1" connect="1" arrows="1" fold="1" page="1" pageScale="1" pageWidth="850" pageHeight="1100" math="0" shadow="0">
      <root>
        <mxCell id="0" />
        <mxCell id="1" parent="0" />
        <mxCell id="pLNziHSg2PqYxef313HT-1" value="" style="shape=image;verticalLabelPosition=bottom;labelBackgroundColor=default;verticalAlign=top;aspect=fixed;imageAspect=0;image=data:image/jpeg,/9j/4AAQSkZJRgABAQAAAQABAAD/2wCEAAkGBxASEhUREhIVFRUVEBcSFhUYGBUWFRkZFxUXFxYYFhUbHiggGBslGxcVITMhJS0rLi4uFx8zODMtNystLisBCgoKDg0OGxAQGy4mHyUvLS0vLS0tLi0tLS0tLS4tLS0tKy0vLS0tLS0tLS0tLS0tLS0tLS0tLS0tLS0tLS0tLf/AABEIAJ8BPQMBIgACEQEDEQH/xAAcAAEAAgIDAQAAAAAAAAAAAAAABgcBBQMECAL/xABKEAABBAADAwYJBwgKAwEAAAABAAIDEQQSIQUGMQcTQVFhcRYiVIGRkqGx0RQyNEJzs8IjJFJyg6OywTVEU2J0w9Lh8PElM6IV/8QAGgEBAAMBAQEAAAAAAAAAAAAAAAIDBAEFBv/EADYRAAIBAgMCCwgCAwEAAAAAAAABAgMRBBIhMTIFFEFRYXGBkZKhwRMVM1JTcuHwQrFi0fEi/9oADAMBAAIRAxEAPwC8UREAREQBERAEREAREQBERAEREAREQBERAEREAREQBERAEREAREQBERAEREAREQBERAEREAREQBERAEREBi0tVLvrvvLzj44ZDFFG4szN0e8jQnNxAu6A7+6K+GmJ8rn9eT4rXHByaTbS6zBLhCCk1GMnblS0PQlpa8+eGmI8rn9aT4p4aYjyuf1pPiu8Tfzoj7wX05dx6DtLXnzw0xHlc/rSfFPDTEeVz+tJ8U4m/nQ94L6cu49B2lrz54aYjyuf1pPinhpiPK5/Wk+KcTfzoe8F9OXceg7S1588NMR5XP60nxTw0xHlc/rSfFOJv50PeC+nLuPQdpa8+eGmI8rn9aT4o3fXE2Pzufzukrz6rvE386HvBfTl3HoRFA9wN7JMS4wTkOeGZ2SUBmA4h1aWLBscRfVrPFlqU3TllkbKNaNWGeIREUC0IiIAiIgCIiAIiIAiIgCIiAIiIAiIgCIiAIiIAiIgCIiHVtPNO83T9ufxLQLf7z8f2x/EtCvYq7x4OG3O1hFhFUXmUWEQGUREARFhAZRYWUBZPJV9Lg+xd90rrVKclX0uD7E/dK61RjfiLqXqXcG/Cf3MIorvrvPJgeayRtfzme8xIrLk4V+t7FuNg450+HjmcA0vbmocBrwWZ05KKnbRmxVYObgtqNkiKDRb6ynHfI+aZl+UOiz2boOIuuF6JCnKd8vIripWhTtme12XWTlFgFZUCwIiIAiIgCIiAIiIAiIgCIiAIiIAiIgCIiAIiIdW080bz8f2x/EtEt9vPx/bH8S0K9irvHgYbc7WEUx3X3DkxA53EScxEAXVWaZwBrxWfV10117CrH2bFszAMLsNhy9wGrwM0hOmhe7xhdj5oyg9SyTrxjptN0aLer0RU2zdytpT0Y8LIGn60lRDv8cgkd1rfwckm0T86TDM73yE+gR17VOdo7+Owwa/FYKWJru0vcLGgcQzmwT1Z70K0s3LJhwfEwsxHW5zGn0DN71neJkyz2dKO8/3uNO/kgxtaYjDk9plHtyFa/Gcl21GC2sil7I5Bf7wNVu7t7bdi4Wz8w+Jrr0eRZ1q2gDUdppbfMixEyfsKbV0eYtp7JxOGNTwyRa0C9pDT+q7g7zFdNem9tYxscRc4QlnB3PSCOOu0lrge6lTe8Ddk4l5ZhIJmz/WOGaJML22HlhAq/GaAO9WxxK/kUzo5djIQiHvtFoTTV0UFk8lX0uD7E/dK61SnJV9Lg+xP3SutU474i6l6l3Bvwn9zK45X/6r+2/ylqNlb/zQQxwthjcI2hoJLrK2/K//AFX9t/lLb7Pwkb9kjMxp/NXngLsBxBvrB1VilCOHhmjfV+pRKFSWKqezllaS5L8iO9ulvKzGsdTSyRhAey7FG6c09INH0dyjUO34ztHmPkeHDvlTm88GDnLDiM+avnHr7V0uSYn5RN9j+Nq6UH9Mn/HO/icuOhCNSpHkUbhYmpKjSnfVys+lXt+2sWFvNvDHg4w5wL3OJDGA1ZHEk9DRprrxChw5T5r+jMrqzOv01/JfHK2489COqJx9L9fcFv8AaWAi/wDydI26YaN40F5qa7NfXd+lchClGnByjdyfPsJ1KlapVqRhLKormvc3m7m2o8ZFzrAR42VzTxa4Aado1BB7VHN5N/mwSuhhjEhYcr3OdTQ4cWgDU1wPDULp8kLj+cjoHNHznnL9wUf3VhbLtNokAcDJK4g6gkB7hY76K7GhCNSeZXUV6XOSxVWdGnl0cna/bY3uE5TePO4fo8Utd09AIdwHbr3LhHKfNf0ZldWZ1+mv5LqcqOFjjxEZYwNzQ26gBZDiASB017lJNp7LgGybEbARhWSB1DNmpri7Nxskn0qTjQUYyyb2m16f0VqWKcpw9puK+xa+Rv8Ad3bceMi51lgh2VzTxa4dHaKIIPb5lENtcoM0E8sIijIjkLASXWa61jkgJ/Oh0fkT6edv3Bdna2/WBjkc1mH50hxBfTWtJvWiQSdemlWqKjWlFRzJdNrX1LniHPDwqSmoN9F72bWzzOHZPKRmkayeENa4gZ2uJy2astI4edTLbu2I8JC6aS6BAAFW5x4NH/Ogql95NpxYmUyxQiIFoBaCCC4XbtAOIr0KyN/tnST4FhjBcY3MlLRqSMhaSB0kZr9KlWoQUoaZU9q5iGHxVVwqa5nHY7bf2xoZeU6a9MOwDqL3E+kAKT7kbyyY4Sl7Gt5stAykm82bjfcq72FvXNhWc02OJzcxcc7fG14+MCPbasjc/eOPGMdUYjkZWdo1FG8rgaFjQ9yYmkoRdqdum/ocweIdSazVb9FkvNd5qd4+UBsEroYYhIWEte9zqaHDiABqa4HhwWrw3KTO57WmGMZntbdu6SB1rQ7ainweNfIWCxK50Ze3M14cSQddDofMVINkcoNva3EQRhpIBewVl14lpux5/grPYQUE4wzabb+hVxqcqjjOpk12ZeTr5CzQsrAWV5h7gREQBERAEREOraead5Rr+3P4lpWYjmz4oa48CSLA/V+Po6zud53EX2zEexyjq242o1LKuZHg4Xc7WWdsLZbnYF+In2mBEAJSyExue0tFta+V/jB/QGAjXS9VovCPZ7oHsMMsU7zriWRwPkNO0deZnN6cWsoXZuyonhmyPIhjzOMj21G2/GcLDPF6SMzq6sxU72Dyd4kPrEwMoxuLTzlhj/qc41jxnbxsNJPaOnzjem5aJepY209gx4vZ4wjMQ7KWMyzXzpOUgguJPjA9VhcWyNwtmwAfkBI8UTJJb3EjpAPit11oBdzdrZzsLh2wOMZyk0Y2c2DZuyyz4xJNm/RwW0zpc0pLa0fEeAjbJzozh2XLl5yXm6oDSHNkGgHALX7ysxT2EQvayPmZDI4OLJ8wbcQifWRgzalzr00pbTOoXyk7yYzBCB+GHinPzrizOwUYwwOd9Wy41qLS4k7K5qNq79YSTBtix0TJ8QHasjLZIg5oIbKXh2U8dWhx4noUW2NvPg8O3EkYVznYhmQxOLThm8SBzf1hmN0RpwFWVs9j7rtx5kx2PnGH51xcGtyxHSgXOEg0aa043xtfe1uTxjAAwv8AyjwIpLzZSdAzEMA1YXDSWMaZ/GbwJXKHnev/AEr+acudmpo7GtDW8eFD/tfZAIscOkdX+3auSfZc0Yc6SMtDJTC6y0VI0WWVd3WvcR1hcDTWo8/SD2GldTquD6DO1zllclX0uD7E/dK61SvJZ9Lg+xd3/wDqV1LTjNZp9C9Szg34T+5lb8sB+i/tv8paGPfeZuF+StjYBzZjz2S6jYJrhdEq4ZYWu+c0GuFgFfPySL+zZ6oXIYiKgoShe3T+DtTCVHVlUhUy36L8nWV9yV7NkaZcQ5pDHMEbCdM2tuI7NG69/UtLhj/5k/4938TlcIXF8mju8jbu7oXfXacZeeUmt5W6jvEkqcIJ7rT2bfPTzsQPlR2TJIIsQxpcGNcx9AkgEgtdXVxvvCjOI30mfhBg8rK5trM4vMWtqhXC6AFq51xCBl3kbfXQv0pTxCjFRlG9tnIcq4OUpynCeXMrPS9yH8mOyJIYZJZGlpmc3K06HKwGiR0WXO81KJbkH/yjP15fu5FcVLibh2A2GtB6wAD6VzjLvNtb2nUSeDVqaT3Hfr/15lYcrh/LxfYn+Jylu1P6JP8Ag2fwtUjfAxxstaT2gFZ5ttZaFcKrT0KEq14Rjbd8yccPapOd963ZZW7fIrfklbYxYBqxCL6r55RfZOMfs/Ekywhz2NcwsfpV/WaaPVoa1BV3xQsb81oF9QA9ySQsd85oPeAferuNrPJuOkraX5un8FHEGqcIxlZwvZ253zFGb0bcGMl57mxHUQjyh2bgXG7ofpexWfvNt92Cw0MrWNfmLWU4kAfky69O5SL5HH+gz1Qvp8LToQCOoi1CpXhLKsui5L/vqTpYSpTzvP8A+pW1ts7LlQ7X33+URvY/Cw25pbnPjObf1mk8COgrfclWzpG87O5pa17WsZYrNRJJHZw171Phho/0G+qFzUuzxEfZuEI2T6binhJqqqlSeZrZpYrLH8osge+M4eNwbI5mpJvK4jh5lF8U9+PxH5GBjHOAbkYKaP7zq4cdT2K7/k0f6DfQF9xxNbwAHcKUoYmFPWELPrZXUwVSrpUqXXNlS8xEymgdQA9C5ERYz0giIgCIiAIiIdW086bQbG6XJJ82SYxk9IJzZSD15gF04dzMXJNzUYa4cecLg1gH97pvsAKmW6sbXYqbM0O8R+hAP129a5THLHlzgCTKCcpNXWuU9V2L7FHhWrKnXzLZZX7tGePhIp09edkr3Z2DBgohHEAXV48lDO89JJ41fAdC2+dQiHbcwGhBrocNfYuY7dlPQ30H4rCsXT5b9xuUlyEvMwXGcR1BQt+15ySM9dIoALqzTvd85zj3klceMjyJnHMnMuMA+c8DzgKntvb44+aR5Y+aGJ3itYLaQ3rLqvMeJo9i35HQdepfD+onToPSFxYt83mUzk2Vs9oN3qTxPT32rP2RylxkfnMLWvYwmNzQXNJy1l4ZmXwvUa60uhPho5Pnsa48NQL8xWlx+77OMZy9h1b8R7VbHERe1WKlUcHoSF+/Oz8UxzMdgiC4hxLKdmLRTTntr2uA00PCxdGlE95GYEsjkwcM0Qc97XCWzwawtynM4EHM7t0K1uKwr4zleK6uo9x6VJN1Ym4yGTZ8jspB+UYd/HK8WHtPW0h11+sVo6Sam5bTfclP0uD7E/dK7FTPJrhXxY6OJ4pzGPY4cRbYyDR6QrmW7Fb0ftRPg5WpSX+TCLr4rEsjaXvcAB0/DrK1fhPh7qnnzD4rMbzeIupjsdHCM0jqvQdJPcF0cPvDC97WND7caFgV70B2Z9rQsk5pxOYkCqNeNVa+dbBRzaDsL8pGcSc5mZRFZb0y9PcpGgCIiAIiIAiIgCIiAIiIAiIgCIiAIiIAiIgCIiHVtKN2ZhGSyztfQ8V2R15S1+cBjmuGrTZHDrUkdhpnwM50t55rBmy6tJHGtBx0K0e7ZrEy/qu/jCkzyCCDwIoqXCMVKq4vmX9Hj4TSn2v+yPSMviB33RXC0vHCnD0eg9K22OwgvO0DrPxXSXzs4um8rNWW+p1HYijbmkaHt6ln5Uzr965y8dGvcuIxA6kBLojrz+Rxvlbp4w4jp8381kuB6QUdh2foj2rry4dl0B08b9KmsrIO5ng6uz3f9+5HLhfhCPmuK6755G/OF/8AOsK5K+wpkYxcDXjI4WLHtsCu5aOCSTBYhkrdcpsf3mnRwPbRI9q3hnDiOg3w9v8AJdTa+HzsrpFkeYErTTbWhSp5ZEy3LxDZNqiRhtr+cc09YLCQrcVKclX0uD7F33Sutexit6P2o38HO9KT/wAmRjfR5qIdBLz5xlA95Xd2ZsfDmKNxjBJY1xJu7IBXzvRs98rGuYLLCdBxINXXWdAtXhdt4mNrY+avKA2y14NDQWspvMb2kmdrb05se1zr/l6FIoNk4dhBbGAW6g6332tRvTs6RzmysBdTcpA1Iokg108fYsbP25iHPYx0YALg0nK4efjSA6u2fpzf14ve1TFRDa0bjjWkA1ni1o19XpUvQBERAEREAREQBERAEREAREQBERAEREAREQBERAjzttHacmHe58ehMuR3XlzEkDqOlWuCHfbFtoERuGayS0hxF3Vg0NNLpT/fHcOR0j5cOwSMkcXOjsBzXE2asgEXZ6xai3gBi/I3+sP9S116Ua8s8ZR2La7M8OKqUbwcZbeRXRsdn73YWRoLniJ3S1/8ncCFsJ8K13jCtdesHuUd8AMZ5G/1h/qW0w+wdrMa1jYHhrRlA/JmgOAslZanB2dWc4+L8Firy+SXhOVza0XC547+7VfUmw9ru4wPPeIk8H9q/wBg/wBEfxWR8DTT0qQ8X4JcZf05+E4X306D2+n4LDW9PDqHUFyHd7avk7/3fxWfB7avk7/3fxT3VU+pDxfgi6zf8JeE4HLrO8bu9/8Asu87dvah44d/7v4rHgztPyd/7v4qxcFzX84eL8FbqSf8JeFmjxeF6W+j4LrR4jgHHuKkTt1tpnjh3+lnxXEdzNoE64Z9ntYPxK5cHz5Zw8X4KZZpLcl4WdzkzZWOjA6GSD/4KudQncTdJ2FJmmrnXNytaNQxpNmzwLjQ4cK7VNlfiJKUkou9kkergKU6dK01ZtthERUG0IiIAiIgCIiAIiIAiIgCIiAIiIAiIgCIiAIiIAiIgCIiALFLKIDFJSyiAxSUsogMUlLKIDFJSyiAxSUsogCIiAIiIAiIgCIiAIiIAiIgCIiAIiIAiIgCIiAIiIAiIgCIiAIiIAiIgCIiAIiIAiIgCIiAIiIAiIgCIiAIiIAiIgCIiAIiIAiIgCIiAIiIAiIgCIiAIiID/9k=;" vertex="1" parent="1">
          <mxGeometry x="90" y="190" width="179.43" height="90" as="geometry" />
        </mxCell>
        <mxCell id="pLNziHSg2PqYxef313HT-2" value="" style="shape=image;verticalLabelPosition=bottom;labelBackgroundColor=default;verticalAlign=top;aspect=fixed;imageAspect=0;image=https://www.isric.org/themes/custom/basic/logo.svg;" vertex="1" parent="1">
          <mxGeometry x="107.47" y="310" width="144.5" height="50" as="geometry" />
        </mxCell>
        <mxCell id="pLNziHSg2PqYxef313HT-5" value="" style="shape=image;verticalLabelPosition=bottom;labelBackgroundColor=default;verticalAlign=top;aspect=fixed;imageAspect=0;image=https://diligentias.com/wp-content/uploads/2019/08/Intergovernmental-Panel-on-Climate-Change.jpg;" vertex="1" parent="1">
          <mxGeometry x="420" y="280" width="107.44" height="60" as="geometry" />
        </mxCell>
        <mxCell id="pLNziHSg2PqYxef313HT-6" value="" style="shape=image;verticalLabelPosition=bottom;labelBackgroundColor=default;verticalAlign=top;aspect=fixed;imageAspect=0;image=https://www.esa-landcover-cci.org/sites/default/files/images/esa%20cci%20landcover%20logo.GIF;" vertex="1" parent="1">
          <mxGeometry x="880" y="270" width="144.03" height="50" as="geometry" />
        </mxCell>
        <mxCell id="pLNziHSg2PqYxef313HT-7" value="" style="shape=image;verticalLabelPosition=bottom;labelBackgroundColor=default;verticalAlign=top;aspect=fixed;imageAspect=0;image=https://glad.umd.edu/sites/default/files/glad_logo8.png;" vertex="1" parent="1">
          <mxGeometry x="890" y="400" width="306.35" height="70" as="geometry" />
        </mxCell>
        <mxCell id="pLNziHSg2PqYxef313HT-8" value="" style="shape=image;verticalLabelPosition=bottom;labelBackgroundColor=default;verticalAlign=top;aspect=fixed;imageAspect=0;image=https://essd.copernicus.org/articles/13/4263/2021/essd-13-4263-2021-avatar-web.png;" vertex="1" parent="1">
          <mxGeometry x="118.36" y="400" width="122.72" height="147.86" as="geometry" />
        </mxCell>
        <mxCell id="pLNziHSg2PqYxef313HT-9" value="CCI Biomass v4" style="whiteSpace=wrap;html=1;aspect=fixed;" vertex="1" parent="1">
          <mxGeometry x="300" y="200" width="80" height="80" as="geometry" />
        </mxCell>
        <mxCell id="pLNziHSg2PqYxef313HT-10" value="SOC" style="whiteSpace=wrap;html=1;aspect=fixed;" vertex="1" parent="1">
          <mxGeometry x="300" y="310" width="80" height="80" as="geometry" />
        </mxCell>
        <mxCell id="pLNziHSg2PqYxef313HT-11" value="Root biomass" style="whiteSpace=wrap;html=1;aspect=fixed;" vertex="1" parent="1">
          <mxGeometry x="300" y="420" width="80" height="80" as="geometry" />
        </mxCell>
      </root>
    </mxGraphModel>
  </diagram>
</mxfile>
